<svg xmlns="http://www.w3.org/2000/svg" xmlns:xlink="http://www.w3.org/1999/xlink" viewBox="0 0 299.74 112.79"><defs><style>.cls-1{isolation:isolate;}.cls-2{opacity:0.3;}.cls-3{fill:#fff;}.cls-4{fill:#f15a29;}.cls-5{fill:url(#linear-gradient);}.cls-6,.cls-7,.cls-8{opacity:0.35;mix-blend-mode:multiply;}.cls-6{fill:url(#linear-gradient-2);}.cls-7{fill:url(#linear-gradient-3);}.cls-8{fill:url(#linear-gradient-4);}.cls-9{opacity:0.55;fill:url(#linear-gradient-5);}.cls-10{fill:#414042;}.cls-11{fill:#e84724;}.cls-12{fill:#575a5e;}</style><linearGradient id="linear-gradient" x1="86.67" y1="56.4" x2="48.1" y2="56.4" gradientUnits="userSpaceOnUse"><stop offset="0.31" stop-color="#dcddde"/><stop offset="1" stop-color="#414042"/></linearGradient><linearGradient id="linear-gradient-2" x1="52.4" y1="100.62" x2="68.97" y2="100.62" gradientUnits="userSpaceOnUse"><stop offset="0.39" stop-color="#231f20"/><stop offset="0.54" stop-color="#231f20" stop-opacity="0"/></linearGradient><linearGradient id="linear-gradient-3" x1="52.4" y1="12.18" x2="68.97" y2="12.18" xlink:href="#linear-gradient-2"/><linearGradient id="linear-gradient-4" x1="12.18" y1="63.98" x2="12.18" y2="47.41" xlink:href="#linear-gradient-2"/><linearGradient id="linear-gradient-5" x1="68.69" y1="54.04" x2="102.57" y2="11.4" gradientTransform="matrix(0.97, 0.01, -0.01, 1, -47.23, 18.09)" gradientUnits="userSpaceOnUse"><stop offset="0.31" stop-color="#fff"/><stop offset="1" stop-color="#fff" stop-opacity="0"/></linearGradient></defs><title>Asset 1</title><g class="cls-1"><g id="Layer_2" data-name="Layer 2"><g id="Layer_1-2" data-name="Layer 1"><g class="cls-2"><path class="cls-3" d="M110,56.43q3.69-1,7.55-1.93a5.49,5.49,0,0,1-4.63-3.27L108.3,54.1A10,10,0,0,0,110,56.43Z"/></g><path class="cls-4" d="M52.4,24.36s8.38-4.79,16.57,0L60,0Z"/><path class="cls-4" d="M69,88.44s-8.38,4.79-16.57,0l9,24.36Z"/><path class="cls-4" d="M24.36,64s-4.79-8.39,0-16.57L0,56.4Z"/><path class="cls-4" d="M62,82.55A26.2,26.2,0,1,1,85.25,44.2,30,30,0,0,0,38.8,33.12L25.35,27s5.52,10.1,7.14,13.25a30,30,0,0,0-.08,32.27L26.62,85.91s7.69-4.44,11.67-6.67A30,30,0,0,0,85.55,67.92,26.2,26.2,0,0,1,62,82.55"/><path class="cls-5" d="M61.93,33.81a22.49,22.49,0,0,0-2.31,44.86,8.51,8.51,0,0,0,4.62,0,22.49,22.49,0,0,0-2.31-44.86ZM75.38,40.6H71.75a17.06,17.06,0,0,0-3.26-3.91A20.71,20.71,0,0,1,75.38,40.6Zm-12.6-4.73c2.61.31,5,2,6.89,4.73H62.78Zm-1.49,0V40.6H54.2C56.14,37.83,58.6,36.09,61.28,35.84Zm-5.91.84a17.06,17.06,0,0,0-3.25,3.91H48.48A20.72,20.72,0,0,1,55.37,36.69Zm-8.46,5.41H77a20.74,20.74,0,0,1,3.87,5.78H74.77a28.11,28.11,0,0,0-1.57-4.5H71.28a25.81,25.81,0,0,1,1.66,4.5H62.78v-4.5H61.28v4.5H50.93a25.34,25.34,0,0,1,1.66-4.5H50.66a28.33,28.33,0,0,0-1.56,4.5H43A20.83,20.83,0,0,1,46.91,42.09Zm-4.48,7.28h39a20.26,20.26,0,0,1,1.17,6.09H75.82a34.93,34.93,0,0,0-.49-4.89H73.53a34,34,0,0,1,.5,4.89H62.78V50.57H61.28v4.89H49.84a33.7,33.7,0,0,1,.5-4.89H48.53A34.94,34.94,0,0,0,48,55.46H41.26A20.68,20.68,0,0,1,42.43,49.37ZM69.17,75.69a17.11,17.11,0,0,0,2.07-2.51H69.09a10.4,10.4,0,0,1-5.17,3.73q-.57.06-1.15.08v-3.8H61.28V77c-.46,0-.91,0-1.35-.08a10.46,10.46,0,0,1-5.16-3.73H52.62a17.2,17.2,0,0,0,2.07,2.51A20.76,20.76,0,0,1,48.48,72H51.4v0H72.57v0h2.81A20.78,20.78,0,0,1,69.17,75.69ZM77,70.52H72.8a27.89,27.89,0,0,0,1.84-4.93H72.81a25,25,0,0,1-2,4.93H62.78V65.58H61.28v4.93H53a24.77,24.77,0,0,1-2-4.93H49.22a27.89,27.89,0,0,0,1.84,4.93H46.91a20.89,20.89,0,0,1-4-6.08h3.51v0H77.85v0H81A20.74,20.74,0,0,1,77,70.52Zm-1.69-7.58a35.5,35.5,0,0,0,.54-4.73H74a33.32,33.32,0,0,1-.55,4.73H62.78V58.21H61.28v4.73H50.42a33.15,33.15,0,0,1-.55-4.73h-1.8a35.35,35.35,0,0,0,.53,4.73H42.33a20.71,20.71,0,0,1-1.08-6H82.61a20.83,20.83,0,0,1-1.08,6Z"/><path class="cls-6" d="M69,88.44s-8.38,4.79-16.57,0l9,24.36Z"/><path class="cls-7" d="M52.4,24.36s8.38-4.79,16.57,0L60,0Z"/><path class="cls-8" d="M24.36,64s-4.79-8.39,0-16.57L0,56.4Z"/><path class="cls-9" d="M79.41,31.74a36.68,36.68,0,0,0-43-.46L25.59,26.57c1.61,3.08,4.26,8.15,5.52,10.67A33.09,33.09,0,0,0,30.85,71L25.11,84.41a1.15,1.15,0,0,0,.27,1.3,1.1,1.1,0,0,0,.74.29,1.08,1.08,0,0,0,.56-.15l5.4-3.14S43.14,40.27,79.41,31.74Z"/><path class="cls-10" d="M104.63,37A8.62,8.62,0,0,0,109,38.32c1.59,0,2.44-.66,2.44-1.62,0-2.78-8-.91-8-6.55,0-2.44,2-4.44,5.46-4.44A12.25,12.25,0,0,1,114.21,27L113,29.52a9,9,0,0,0-4-1c-1.42,0-2.27.68-2.27,1.57,0,2.74,8,.81,8,6.55,0,2.51-1.91,4.48-5.74,4.48a11.88,11.88,0,0,1-5.93-1.66Z"/><path class="cls-10" d="M125.13,25.72a7.4,7.4,0,0,1,7.72,7.67,7.72,7.72,0,1,1-15.43,0A7.41,7.41,0,0,1,125.13,25.72Zm0,12.69c2.61,0,4.44-2,4.44-5s-1.81-5-4.44-5-4.42,2-4.42,5S122.54,38.4,125.13,38.4Z"/><path class="cls-10" d="M136,26h3.21V38.09h7.4v2.78H136Z"/><path class="cls-10" d="M149.61,26h3.23v9.22a3.05,3.05,0,1,0,6.1,0V26h3.23v9.22c0,4-2.61,5.93-6.27,5.93s-6.29-1.93-6.29-5.93Z"/><path class="cls-10" d="M169.86,28.84H165V26h13v2.85h-4.91v12h-3.21Z"/><path class="cls-10" d="M180.83,26H184V40.87h-3.21Z"/><path class="cls-10" d="M194.92,25.72a7.4,7.4,0,0,1,7.72,7.67,7.72,7.72,0,1,1-15.43,0A7.41,7.41,0,0,1,194.92,25.72Zm0,12.69c2.61,0,4.44-2,4.44-5s-1.81-5-4.44-5-4.42,2-4.42,5S192.33,38.4,194.92,38.4Z"/><path class="cls-10" d="M205.8,26h3.06l6.63,9.78V26h3.06V40.87h-3.06l-6.63-9.73v9.73H205.8Z"/><path class="cls-11" d="M104.24,50.75h4.34V70.87h-4.34Z"/><path class="cls-11" d="M112.49,50.75h4.37l6.07,8.6,6.09-8.6h4.31V70.87H129.2V57l-6.27,8.68L116.63,57V70.87h-4.14Z"/><path class="cls-11" d="M137.25,50.75h4.37l6.07,8.6,6.09-8.6h4.31V70.87h-4.14V57l-6.27,8.68L141.39,57V70.87h-4.14Z"/><path class="cls-11" d="M162,50.75h4.34V70.87H162Z"/><path class="cls-11" d="M180,50.37a12.36,12.36,0,0,1,7.42,2.5l-2.27,2.93a8.54,8.54,0,0,0-5-1.7c-3.77,0-6.18,2.76-6.18,6.61,0,4.17,2.3,6.78,6.18,6.78a7,7,0,0,0,3.51-.83v-4H179v-3h8.54v9.2a12.84,12.84,0,0,1-7.62,2.36c-6.38,0-10.46-4.37-10.46-10.55C169.48,54.89,173.56,50.37,180,50.37Z"/><path class="cls-11" d="M191.3,50.75h8.85c5.75,0,7.73,3.16,7.73,6.38a5.84,5.84,0,0,1-3.68,5.58l3.85,8.16h-4.69l-3.11-7.47h-4.63v7.47H191.3Zm8.8,9.4c2.3,0,3.42-1.27,3.42-3s-1.15-2.93-3.39-2.93h-4.48v5.92Z"/><path class="cls-11" d="M217.23,50.75h5l7.24,20.12h-4.66l-1.24-3.77h-7.67l-1.24,3.77H210Zm-.26,13h5.46l-2.7-8.19h-.06Z"/><path class="cls-11" d="M237.32,54.6h-6.64V50.75h17.62V54.6h-6.64V70.87h-4.34Z"/><path class="cls-11" d="M251,50.75h4.34V70.87H251Z"/><path class="cls-11" d="M268.92,50.37a10,10,0,0,1,10.44,10.38,10.44,10.44,0,1,1-20.87,0A10,10,0,0,1,268.92,50.37Zm0,17.16c3.54,0,6-2.67,6-6.78s-2.44-6.7-6-6.7-6,2.67-6,6.7S265.41,67.54,268.92,67.54Z"/><path class="cls-11" d="M282.49,50.75h4.14l9,13.22V50.75h4.14V70.87H295.6l-9-13.17V70.87h-4.14Z"/><path class="cls-12" d="M103.75,80.87H105V92.12h-1.2Z"/><path class="cls-12" d="M118.56,80.87V92.12h-1.13l-7-9.25v9.25h-1.2V80.87h1.13l7,9.25V80.87Z"/><path class="cls-12" d="M129,82.07h-3.12V92.12h-1.2V82.07H121.6v-1.2H129Z"/><path class="cls-12" d="M133.38,82v3.88h4.32v1.16h-4.32V91h5v1.16h-6.16V80.87h6.16V82Z"/><path class="cls-12" d="M150.23,92.12h-1.37L145.66,87h-2.12v5.08h-1.2V80.87h4A3.13,3.13,0,0,1,149.51,84a3,3,0,0,1-2.61,3Zm-3.93-6.23a1.89,1.89,0,0,0,2-1.91,1.91,1.91,0,0,0-2-1.91h-2.76v3.83Z"/><path class="cls-12" d="M162.55,80.87V92.12h-1.13l-7-9.25v9.25h-1.2V80.87h1.13l7,9.25V80.87Z"/><path class="cls-12" d="M172.68,89.5h-5l-.92,2.63h-1.31l4.08-11.25h1.33l4.08,11.25H173.6Zm-.39-1.14-2.1-6.06-2.12,6.06Z"/><path class="cls-12" d="M184,82.07h-3.12V92.12h-1.2V82.07h-3.12v-1.2H184Z"/><path class="cls-12" d="M187.16,80.87h1.2V92.12h-1.2Z"/><path class="cls-12" d="M192.23,86.49A5.79,5.79,0,1,1,198,92.27,5.78,5.78,0,0,1,192.23,86.49Zm10.37,0A4.58,4.58,0,1,0,198,91.07,4.55,4.55,0,0,0,202.6,86.49Z"/><path class="cls-12" d="M216.9,80.87V92.12h-1.13l-7-9.25v9.25h-1.2V80.87h1.13l7,9.25V80.87Z"/><path class="cls-12" d="M227,89.5h-5l-.92,2.63h-1.31l4.08-11.25h1.33l4.08,11.25h-1.31Zm-.39-1.14-2.1-6.06-2.12,6.06Z"/><path class="cls-12" d="M237.53,90.92v1.2h-5.39V80.87h1.2V90.92Z"/><path class="cls-12" d="M246.69,80.87h1.2V92.12h-1.2Z"/><path class="cls-12" d="M261.5,80.87V92.12h-1.13l-7-9.25v9.25h-1.2V80.87h1.13l7,9.25V80.87Z"/><path class="cls-12" d="M265.29,86.49a5.79,5.79,0,0,1,10.82-2.85l-1,.58a4.58,4.58,0,1,0,0,4.54l1,.58a5.79,5.79,0,0,1-10.82-2.85Z"/><path class="cls-12" d="M279,91.24a1.05,1.05,0,0,1,1-1,1,1,0,1,1,0,2.06A1.05,1.05,0,0,1,279,91.24Z"/></g></g></g></svg>