<svg xmlns="http://www.w3.org/2000/svg" viewBox="0 0 85.55 112.79"><defs><style>.cls-1{isolation:isolate}.cls-2,.cls-3,.cls-4{fill:#fff}.cls-3{opacity:.35;mix-blend-mode:multiply}.cls-4{opacity:.55}</style></defs><title>Asset 1</title><g class="cls-1"><g id="Layer_2" data-name="Layer 2"><g id="Layer_1-2" data-name="Layer 1"><path d="M52.4,24.36s8.38-4.79,16.57,0L60,0Z" class="cls-2"/><path d="M69,88.44s-8.38,4.79-16.57,0l9,24.36Z" class="cls-2"/><path d="M24.36,64s-4.79-8.39,0-16.57L0,56.4Z" class="cls-2"/><path d="M62,82.55A26.2,26.2,0,1,1,85.25,44.2,30,30,0,0,0,38.8,33.12L25.35,27s5.52,10.1,7.14,13.25a30,30,0,0,0-.08,32.27L26.62,85.91s7.69-4.44,11.67-6.67A30,30,0,0,0,85.55,67.92,26.2,26.2,0,0,1,62,82.55" class="cls-2"/><path d="M61.93,33.81a22.49,22.49,0,0,0-2.31,44.86,8.51,8.51,0,0,0,4.62,0,22.49,22.49,0,0,0-2.31-44.86ZM75.38,40.6H71.75a17.06,17.06,0,0,0-3.26-3.91A20.72,20.72,0,0,1,75.38,40.6Zm-12.6-4.73c2.61.31,5,2,6.89,4.73H62.78Zm-1.49,0V40.6H54.2C56.14,37.83,58.6,36.09,61.28,35.84Zm-5.91.84a17.06,17.06,0,0,0-3.25,3.91H48.48A20.72,20.72,0,0,1,55.37,36.69Zm-8.46,5.41H77a20.73,20.73,0,0,1,3.87,5.79H74.77a28.1,28.1,0,0,0-1.57-4.5H71.28a25.81,25.81,0,0,1,1.66,4.5H62.78v-4.5H61.28v4.5H50.93a25.34,25.34,0,0,1,1.66-4.5H50.66a28.33,28.33,0,0,0-1.56,4.5H43A20.82,20.82,0,0,1,46.91,42.09Zm-4.48,7.28h39a20.26,20.26,0,0,1,1.17,6.09H75.82a35,35,0,0,0-.49-4.89H73.53a34.08,34.08,0,0,1,.5,4.89H62.78V50.57H61.28v4.89H49.84a33.71,33.71,0,0,1,.5-4.89H48.53A34.94,34.94,0,0,0,48,55.46H41.26A20.69,20.69,0,0,1,42.43,49.37ZM69.17,75.69a17.11,17.11,0,0,0,2.07-2.51H69.09a10.4,10.4,0,0,1-5.17,3.73q-.57.06-1.15.08v-3.8H61.28V77c-.46,0-.91,0-1.35-.08a10.46,10.46,0,0,1-5.16-3.73H52.62a17.2,17.2,0,0,0,2.07,2.51A20.75,20.75,0,0,1,48.48,72H51.4v0H72.57v0h2.81A20.78,20.78,0,0,1,69.17,75.69ZM77,70.52H72.8a27.9,27.9,0,0,0,1.84-4.93H72.81a25,25,0,0,1-2,4.93H62.78V65.58H61.28v4.93H53a24.76,24.76,0,0,1-2-4.93H49.22a27.89,27.89,0,0,0,1.84,4.93H46.91a20.89,20.89,0,0,1-4-6.08h3.51v0H77.85v0H81A20.74,20.74,0,0,1,77,70.52Zm-1.69-7.58a35.52,35.52,0,0,0,.54-4.73H74a33.29,33.29,0,0,1-.55,4.73H62.78V58.21H61.28v4.73H50.42a33.15,33.15,0,0,1-.55-4.73h-1.8a35.33,35.33,0,0,0,.53,4.73H42.33a20.71,20.71,0,0,1-1.08-6H82.61a20.83,20.83,0,0,1-1.08,6Z" class="cls-2"/><path d="M69,88.44s-8.38,4.79-16.57,0l9,24.36Z" class="cls-3"/><path d="M52.4,24.36s8.38-4.79,16.57,0L60,0Z" class="cls-3"/><path d="M24.36,64s-4.79-8.39,0-16.57L0,56.4Z" class="cls-3"/><path d="M79.41,31.74a36.68,36.68,0,0,0-43-.46L25.59,26.57c1.61,3.08,4.26,8.15,5.52,10.67A33.08,33.08,0,0,0,30.85,71L25.11,84.41a1.15,1.15,0,0,0,.27,1.3,1.1,1.1,0,0,0,.74.29,1.08,1.08,0,0,0,.56-.15l5.4-3.14S43.14,40.27,79.41,31.74Z" class="cls-4"/></g></g></g></svg>