<svg version="1.1" x="0px" y="0px" width="474" height="255" xmlns="http://www.w3.org/2000/svg" xmlns:xlink="http://www.w3.org/1999/xlink" xmlns:a="http://ns.adobe.com/AdobeSVGViewerExtensions/3.0/" xml:space="preserve"><g transform="translate(117.40625 226.50054484728)  scale(0.65909090909091 0.65909090909091)"><text dominant-baseline="auto" alignment-baseline="auto" font-family="Butler" font-size="34px" fill="#00205e" letter-spacing="0" xml:space="preserve">Immigration Consulting</text></g>
<g transform="translate(20.976802825928 20.497696230488) scale(1.460948232281 1.4609483548285) rotate(0 67.489440917969 56.470184326172)"><linearGradient id="SVGID_1" x1="0%" y1="0%" x2="100%" y2="0%" gradientTransform="rotate(90)"><stop offset="0%" stop-color="#ff0000" stop-opacity="1"></stop><stop offset="100%" stop-color="#010811" stop-opacity="1"></stop></linearGradient><path d="M108.899 28.756C83.602 53.582 37.323 88.383 26.846 94.648c-2.411 1.441-4.83 2.878-7.492 3.775-23.201 7.825-11.299-28.374-11.299-28.374-1.482 1.438-3.154 4.587-4.465 7.4C1.573 81.779.299 86.433.047 91.203c-.633 11.915 5.2 15.229 9.67 16.036 2.325.42 4.717.183 6.964-.544 26.122-8.437 72.505-56.256 92.401-77.74-.062-.068-.124-.133-.183-.199z" fill="url(#SVGID_1)"></path><linearGradient id="SVGID_2" x1="0%" y1="0%" x2="100%" y2="0%" gradientTransform="rotate(90)"><stop offset="0%" stop-color="#9c3522" stop-opacity="1"></stop><stop offset="100%" stop-color="#999b9e" stop-opacity="1"></stop></linearGradient><path d="M102.872 40.556a57.813 57.813 0 011.933 5.245c-.372-.556-.767-1.254-1.426-1.723-.736-.523-1.891-.711-2.63-1.301-.344.357-.689.718-1.037 1.078.96.742 2.242 1.287 3.043 2.157a8.1 8.1 0 002.666 1.936 58.71 58.71 0 012.065 15.433 58.432 58.432 0 01-6.272 26.393c-.899.443-1.524 1.276-2.344 1.804-.241-1.499 1.224-2.345 1.476-3.642.343-1.771-.487-3.949-.407-5.759.088-1.978 1.736-2.914 2.137-4.618.145-.61.014-1.525-.023-2.147-.463.005-.951-.022-1.402-.157.637-1.618 1.313-.858.701-2.597-.303-.86-.528-1.834-.295-2.752.295-1.166.864-1.204.48-2.298-.303-.859-1.168-1.861-2.26-1.477-.684.24-.996 1.518-1.543 1.673-.969.273-.9-.943-1.615-1.307-.758-.384-1.846.086-2.713-.045-.896-.136-3.029-.061-3.695-.455-1.101-.65-1.105-2.806-1.326-3.933-.272-1.393-.731-2.69-.707-4.121.012-.743.133-1.46.32-2.165a651.332 651.332 0 01-10.666 10.393c.234.21.475.413.751.581 1.083.659 3.907 1.243 4.445 2.456.432.974-.695 2.271-.036 3.184.886 1.225 2.916 1.432 4.272 1.487.989.04 2.772.454 3.507 1.238.092.098.124.535.216.676.264.405.79.77 1.005 1.163.128.232.326.418.404.689-.275.729-.768 1.086-1.269 1.717-.889 1.12-1.271 2.757-2.296 3.777-.268.266-.631.359-.871.588-.568.543-.73 1.174-1.105 1.85-.596 1.079-1.223 2.102-2.018 3.011-.752.86-1.348 1.378-2.26 2.023-.57.403-.789.882-1.488 1.184-.639.274-1.283.249-1.869.639-1.491.993-1.998 2.981-2.584 4.55-.484 1.295-.749 1.146-1.912 1.699-.427.203-.658.614-1.095.795-.353.146-.767.08-1.116.21-1.252.464-1.081 1.437-1.686 2.479-.561.967-2.229 1.899-2.498 3.054-.183.785.712 2.214 1.244 2.652-1.352.166-2.131-.215-2.784-1.173-.521-.764-1.442-2.275-2.554-1.475-.354-.793-.566-1.517-.146-2.25.233-.408.521-.425.664-.981.148-.578.262-1.413.354-2.009.201-1.311-.271-2.703-.033-4.03.297-1.652 1.551-2.719 1.63-4.463.054-1.188.03-2.419-.084-3.589-.054-.563.036-1.4-.12-1.935-.38-1.304-1.811-2.438-2.789-3.291-.295-.257-1.159-.992-1.982-1.808-10.84 9.428-21.634 17.773-31.205 23.336a51.908 51.908 0 0028.895 8.735c28.811 0 52.167-23.355 52.167-52.166a51.93 51.93 0 00-5.423-23.16c-.913.965-1.843 1.946-2.791 2.942zM114.247 33.564c-2.287-4.28-5.779-7.213-10.214-9.091l.22-.468c1.926.082 3.857.104 5.777.27 1.111.096 1.818-.26 2.463-1.164 1.467-2.062 3.045-4.044 4.561-6.072 1.1-1.469.939-2.286-.691-3.133-4.189-2.178-8.401-4.314-12.603-6.472-.243-.124-.472-.277-.706-.417l.012-.517c.699-.009 1.408-.099 2.096-.015 5.492.667 10.985 1.324 16.465 2.083 1.656.229 2.801-.219 3.947-1.456 1.874-2.026 3.947-3.871 5.991-5.734.584-.532 1.327-.916 2.05-1.259.314-.149.953-.174 1.101.015.231.294.339.884.202 1.231-.377.958-.801 1.934-1.399 2.764a143.985 143.985 0 01-4.933 6.454c-.754.931-1.037 1.784-.723 2.996 1.475 5.68 2.865 11.381 4.27 17.077.127.516.148 1.058.22 1.588l-.431.193c-.303-.344-.648-.659-.902-1.036a2838.844 2838.844 0 01-7.633-11.326c-.949-1.414-2.094-1.587-3.279-.432-1.896 1.851-3.827 3.674-5.627 5.616-.449.485-.682 1.402-.621 2.086.177 1.999.552 3.981.85 5.97-.157.084-.311.166-.463.249z" fill="url(#SVGID_2)"></path><linearGradient id="SVGID_3" x1="0%" y1="0%" x2="100%" y2="0%" gradientTransform="rotate(90)"><stop offset="0%" stop-color="#e71919" stop-opacity="1"></stop><stop offset="100%" stop-color="#9c4848" stop-opacity="1"></stop></linearGradient><path d="M32.955 18.542c1.087-.054 1.639-.726 2.644-.804 1.298-.102 3.395.9 3.908-.571.574-1.653-.893-.615-1.293-1.472-.294-.623 2.351-2.526 2.824-2.864-.812.021-1.599-.155-2.345-.154-.749.315-1.487.649-2.218.998-.799.735-1.521 1.644-2.181 2.352-1.303 1.399-1.454.622-2.174-.011a51.998 51.998 0 00-3.77 2.498c.369-.12.769-.193 1.208-.207 1.11-.033 2.256.289 3.397.235zM59.66 65.063c-.766.038-1.127-.536-1.818-1.068-1.057-.81-1.337-1.235-1.963-2.427-.48-.913-.937-1.345-1.87-1.84-1.164-.611-2.294-.801-3.578-.703-1.979.151-2.615-.464-4.185-1.494-1.649-1.083-3.664-2.436-5.689-2.484-.924-.021-2.606.897-3.138-.418-.42-1.042.852-1.777 1.604-2.129-.812-.896-2.366-1.622-2.961-2.751-.419-.794-.007-3.457-1.566-3.031-.055.523-.257 1.256-.259 1.75-.008 1.227 1.139 1.452 1.294 2.458.299 1.949-2.428-.339-2.717-1.43-.28-1.048-.2-2.266-.622-3.288-.485-1.175-1.491-1.726-2.436-2.479-1.243-.99-1.621-1.574-1.571-3.147.032-.941.124-1.859.092-2.802-.028-.847-.122-1.671.138-2.516.25-.805.495-.719.918-1.34.893-1.313.701-2.435-.433-3.365-.749-.615-.668.002-.638-1.002.026-.749.327-.678.154-1.453-.35-1.563-1.938-1.284-3.36-1.015-1.757.334-1.303 2.31-2.715 3.209-.747.477-1.618.369-2.312.832-.645.435-.813 1.203-1.251 1.78-.855-.379-3.729 2.266-3.472.368 1.801-.444 2.272-2.777 3.331-4.005.608-.708 1.59-1.642 2.365-2.163.654-.437 1.571-.556 1.972-1.293.466-.856.266-2.103.766-3.054.413-.783 1.05-1.305 1.632-1.929C13.99 30.404 6.75 44.742 6.75 60.775c0 12.991 4.76 24.864 12.617 33.996 1.964-.808 3.872-1.944 5.727-3.053 5.574-3.333 20.129-13.906 36.34-26.683l.356-.313a1.6 1.6 0 00-.423-.204c-.799-.247-1.181.519-1.707.545zm33.233-40.235c.002-.047.01-.094.014-.141a59.09 59.09 0 016.264 8.583c.856-.786 1.697-1.566 2.522-2.339-7.216-10.323-18.072-17.901-30.704-20.898a1.61 1.61 0 01-.222.115c-.833.337-1.39-.192-2.165-.381-.682-.168-1.461-.155-2.15-.282-.607-.11-1.229-.082-1.839-.028-.704.066-1.421.121-2.104.246 1.037 1.661 1.584 2.843 3.629 3.492 1.888.602 3.628.809 5.208 2.085 1.286 1.041 1.034 1.396-.053 2.251-.647.51-1.28 1.088-1.245 2.027.033.879 1.73 2.461.853 3.365-1.638 1.69-4.569-1.821-5.317-2.944-.591-.889-1.128-2.241-1.813-2.993-1.142-1.251-2.148-.359-2.865-2.227-.397-1.033-.412-1.265-1.448-1.659-1.244-.475-2.569-.98-3.874-1.29-.803-.192-4.304-2.222-3.406.012.098.242 1.367 1.582 1.568 1.781.424.421 1.022.642 1.582.892.812.363 1.752.672 2.534 1.104 1.138.63.513.631 1.013 1.672.176.361.638.578.826 1.015.128.299.04.617.103.929.142.672.393 1.359.301 2.06-.438-.025-.779-.242-1.179-.337-.852-.203-1.661-.067-2.569-.132 1.313-.803-.366-1.123-.793-1.633-.943-1.124-1.518-4.218-3.774-2.919.068 1.038.676 2.052 1.324 2.748.188.203.672.731.902.848.188.094.606-.05.751.055 1.268.915 1.135 2.459 3.183 2.745 1.548.217 2.669-1.098 3.837-.058.911.813 1.61 1.613 2.621 2.339.629.447 1.103 1.058 1.766 1.479 1.023.654 2.329.849 3.33 1.522 1.128.76 1.421 1.704 1.322 3.032-.742-.311-1.393-.082-2.134.021-.091 1.683-1.685 1.414-2.898 1.36-.649-.03-1.006-.466-1.77.104-.7.522-.519 1.156-1.538 1.378-.979.213-1.784-.391-2.252.769-.399.988.349.935.468 1.622.234 1.373-1.135 4.173-2.291 4.336l.114 1.026c-1.024.198-1.84 2.102-1.701 3.018.117.786.771 1.267 1.037 1.868.279.628.093 1.296.781 1.862-1.181 2.012-1.515-1.266-1.729-1.629-.349-.601-1.687-1.34-2.322-1.467-.887-.177-1.334.033-1.996.673-.472-.191-.715-.799-1.102-1.002-.81-.424-.801-.088-1.759.08-1.557.273-1.809.387-3.024 1.687-1.375 1.474-1.83 2.082-1.644 4.061.098 1.048.143 2.666.829 3.494.396.477 1.736 1.337 2.383 1.266.863-.093 1.188-1.42 1.601-1.96.644-.849 3.505-2.863 3.858-1.328.34 1.47-2.012 3.274-1.354 4.638.443.923 1.827.318 2.551.364 2.422.157 2.004 3.271 3.031 4.799.759 1.127 1.279.584 2.265.671.994.083.922.709 1.946.233.71-.33 1.056-1.088 1.698-1.511.721-.474 2.223-.844 3.087-.752 8.484-6.795 17.185-14.019 25.112-20.995.129-1.536-.156-3.202.385-4.553 1.019.039 1.486 1.344 2.354 1.677.123.047.246.089.367.119l.945-.848c-.129-.562-.934-.979-1.242-1.331-.945-1.08-.363-1.75-.843-3.084-.273-.76-1.62-2.119-2.22-.973-.931-.187-.751-.839-.725-1.528.012-.295.339-.457.275-.833-.063-.378-.566-.68-.605-.855-.232-1.041.885-2.695 2.129-2.613z" fill="url(#SVGID_3)"></path></g>
<g transform="translate(184.84119033813 179.02533824858)  scale(2.5382499790005 2.5382499790005)"><text dominant-baseline="auto" alignment-baseline="auto" font-family="Butler" font-size="62px" fill="#bc2720" letter-spacing="0" xml:space="preserve">Ben</text></g>
</svg>